<?xml version="1.0" encoding="UTF-8"?>
<svg id="Warstwa_1" xmlns="http://www.w3.org/2000/svg" version="1.1" viewBox="0 0 197.14 236.94">
  <!-- Generator: Adobe Illustrator 29.8.1, SVG Export Plug-In . SVG Version: 2.1.1 Build 2)  -->
  <defs>
    <style>
      .st0 {
        fill: #584b3d;
      }
    </style>
  </defs>
  <path class="st0" d="M197.14.05v236.1H1.87c-.23,0-1.06,1.03-1.87.75V.8h195.28c.23,0,1.06-1.03,1.87-.75ZM193.41,4.53H2.99v227.5l1.12,1.12h189.3V4.53Z"/>
  <path class="st0" d="M144.5,110.62c2.72.25,7.64,1.45,10.29,2.41,18.85,6.82,19.36,34.37,3.3,44.81-2.11,1.37-11.49,5.08-13.59,5.08h-16.06c-.35,1.37-.67,2.64-.78,4.07-.57,7.29-.92,25.96.22,32.73.31,1.83,1.22,3.63,2.41,5.06,2.73,3.28,7.85,2.82,7.12,7.45h-33.6c-1.08-4.26,4.53-4.46,7.1-6.71,1.19-1.05,2.48-3.18,2.64-4.83v-80.01c-.78-6.37-8.01-4.3-7.5-10.06,12.4.84,26.23-1.13,38.46,0ZM128.44,116.6c.24.73-.75,1.62-.75,1.87v37.36c0,2.83,12.04,1.92,14.22,1.53,14.99-2.71,17.46-28.2,7.84-37.05-.78-.72-5.52-3.7-6.01-3.7h-15.31Z"/>
  <path class="st0" d="M115.27,51.12c2.53-2.46,7-4.06,10.56-4.07,4.68,0,7.83,3.12,11.95,3.11,3.04,0,5.49-1.86,8.28-2.24,26.81-3.64,22.69,31.05,7.27,42.39-7.29,5.37-7.98,3.12-15.55,3.12-7.86,0-9.13,2.18-16.41-3.75-9.92-8.09-16.22-28.74-6.1-38.56Z"/>
  <path class="st0" d="M88.91,40.36c-4.31-11.65-15.09-21.34-28.28-18.14-9.5,2.3-14.51,13.78-7.6,21.53,10.33,11.59,38.55,13.27,41.64,31.56,4.62,27.39-31.25,30.49-49.84,22.97-11.03-4.46-9.61-11.3-9.72-22.02,1.29-1.49,7.09,7.42,7.83,8.22,8.3,8.99,14.63,13.42,27.64,11.95,8.85-1,11.88-9.07,9.58-17.06-3.95-13.7-39.9-17.96-43.39-35.04-5.49-26.85,31.69-32.54,49.51-21.89,6.4,3.82,6.46,11.13,4.88,17.62,0,0-2.24.3-2.24.3Z"/>
  <path class="st0" d="M80.65,115.85h-29.5c-1.22,0-6.19,1.48-7.6,2.11-2.93,1.31-4.58,4.01-7.33,5.37-1.72.3-1.03-.76-1.13-1.86-.24-2.87-.11-9.45,3.36-10.1,8.26-1.55,19.77-.82,28.41-.79,6.16.03,12.56-.18,18.63-.03,1.31.03,8.98.72,9.6.92,2.73.88.43,4.51-.41,6.09-9.7,18.37-26.52,36.62-35.56,55.57-2.92,6.11-3.36,11.97-5.73,18.16-7.81-8.93-6.2-19.55-.97-29.35,8.3-15.56,19.87-30.45,28.23-46.09Z"/>
  <path class="st0" d="M88.87,212.99c1.15.94,0,1.36-1.11,1.49-18.51,2.17-32.82-.42-48.42-10.59-11.26-7.35-20.4-19.44-19.92-33.49,12.53,2.23,24.45,10.06,30.74,21.17,2.19,3.88,6.34,17.59,8.85,18.79.98.47,1.93.47,2.97.39-1.38-17.41,3.87-31.33,11.56-46.34,2.02-3.93,4.54-8.98,6.72-12.7.48-.82.76-2.05,1.88-2.22-.89,12.43-8.7,23.53-11.73,35.7-1.5,6.01-3.35,16.19-1.54,22.04,1.5,4.86,15.62,4.69,20,5.77h0Z"/>
  <path class="st0" d="M160.56,24.7c.33,6.52-4.8,14.04-10.8,16.46-2.72,1.1-6.57.94-8.6,1.86-1.28.58-2.57,4.66-3.4,2.6-.34-.83.54-6.13.9-7.34,2.54-8.73,12.97-14.54,21.9-13.58Z"/>
  <path class="st0" d="M136.65,48.61l-3.43-9.64c-.49-2.73-9.65-9.88-7.76-12.02,8.79,3.38,12.2,12.75,11.19,21.66Z"/>
</svg>