<?xml version="1.0" encoding="UTF-8"?>
<svg id="Warstwa_1" data-name="Warstwa 1" xmlns="http://www.w3.org/2000/svg" viewBox="0 0 197.1430819672 236.9394729655">
  <defs>
    <style>
      .cls-1 {
        fill: #c7b299;
      }
    </style>
  </defs>
  <path class="cls-1" d="M197.1430819672.0479592492v236.0964139167H1.8668852459c-.2283924645,0-1.062845612,1.0256822961-1.8668852459.7471405504V.7950997996h195.2761967213c.2283924645,0,1.062845612-1.0256822961,1.8668852459-.7471405504ZM193.4093114754,4.5308025514H2.9870163934v227.5042975875l1.1201311475,1.1207108256h189.3021639344V4.5308025514Z"/>
  <path class="cls-1" d="M144.4969180328,110.6247607039c2.7203474423.2512001414,7.6355324078,1.4511511517,10.2858111835,2.4102552757,18.8532412081,6.8227620277,19.3611702679,34.3731715562,3.3021477746,44.8060603409-2.1071459081,1.3689263417-11.4889618389,5.0835229093-13.5879589581,5.0835229093h-16.0552131148c-.3454104319,1.3692416916-.6703757418,2.6351466106-.7835367141,4.0736946783-.5737123374,7.2932633681-.9216940479,25.9613157119.2160913295,32.7303610574.3077161512,1.8307007827,1.2173092826,3.6321237306,2.4092114484,5.0609472545,2.7337322884,3.2771322295,7.8464355395,2.8176054561,7.1192831166,7.4462733341h-33.6039344262c-1.0760031948-4.2620084759,4.5257320676-4.455654554,7.1035461864-6.7148612064,1.1923987346-1.0450230426,2.4804438926-3.1813587088,2.6374487134-4.8326084907l-.0009115349-80.0069582301c-.7772147644-6.369081303-8.0080823491-4.2964597414-7.4998210698-10.056686923,12.3999259196.839593036,26.2291819514-1.1292085691,38.4578360656,0ZM128.441704918,116.6018851068c.2424086838.733596567-.7467540984,1.6208407198-.7467540984,1.8678513759v37.3570275185c0,2.831599759,12.0438160687,1.9243351696,14.2236037342,1.5295602607,14.9909464682-2.7149660585,17.4634884916-28.1975234445,7.8393720985-37.0524837898-.7834380831-.7208259829-5.5161178101-3.7019553653-6.0077627179-3.7019553653h-15.3084590164Z"/>
  <path class="cls-1" d="M115.2689898072,51.1222546981c2.5298997239-2.4560937814,7.0038283153-4.0608003809,10.5586582486-4.0659676876,4.6790201527-.0068014315,7.8269908842,3.1161218197,11.9498227561,3.1105637305,3.0428812119-.0041021817,5.4881807551-1.8595130741,8.2771227705-2.2383934451,26.806905271-3.6417430548,22.6896571006,31.0487033862,7.2748416283,42.3949096227-7.2906035104,5.3663108174-7.9822024449,3.1178721573-15.5533040631,3.1178892374-7.8615049494.0000177353-9.1320921508,2.1790729496-16.4103431618-3.7546872137-9.92457941-8.0912397568-16.2153027535-28.7410015141-6.0967981786-38.5643142442Z"/>
  <path class="cls-1" d="M88.9056783816,40.362026266c-4.3072513998-11.6539327874-15.0857334434-21.335095099-28.2798930836-18.1353264687-9.4979516803,2.3033863973-14.5064098392,13.7841798611-7.6040497712,21.5267843842,10.3328680001,11.5907182076,38.5518969901,13.2726300219,41.6383302846,31.5600037606,4.6224552236,27.3884313048-31.2500506506,30.4852502454-49.8398307302,22.9681496734-11.025864331-4.4584998162-9.6084392385-11.3045135314-9.7188679554-22.0215928639,1.2932676858-1.4905919534,7.0890470037,7.4230177293,7.8281983659,8.2235964079,8.2985539798,8.9882069066,14.62853793,13.4196402706,27.6408311772,11.9478248968,8.8531120336-1.0013720218,11.8791186628-9.0696836127,9.5766263704-17.0571417123-3.9502741434-13.7036937355-39.8968444815-17.9631875425-43.388058058-35.0400686789-5.4892059652-26.8498376701,31.6863217855-32.5368370167,49.5108824745-21.8918392199,6.3999155509,3.8220906606,6.4608759545,11.1279815765,4.8752578183,17.6186369836l-2.2394268925.3009728372Z"/>
  <path class="cls-1" d="M80.649442623,115.8547445565h-29.4967868852c-1.2170331644,0-6.193364952,1.4822397128-7.5963530274,2.1125429518-2.9256199485,1.3143573789-4.5756332275,4.0139936832-7.3302017772,5.3712071058-1.7152953277.2952081066-1.0320211425-.7563125243-1.125794438-1.8635821986-.2431107634-2.8706378978-.1050028915-9.4506614409,3.3607725557-10.0997665251,8.2604088882-1.5470919824,19.7716392376-.8235219993,28.4091330351-.7856216571,6.163201956.0270434305,12.5601898744-.1845513634,18.629801327-.029231969,1.3096814843.0335143257,8.981030502.7204572123,9.5999127728.9208103568,2.7273020485.8829200111.4264839963,4.5086503121-.4102688333,6.0934748625-9.699046338,18.3701640538-26.5198377968,36.6201386043-35.5629530728,55.5696185818-2.9150931084,6.1084589553-3.355025684,11.9735949773-5.7338219385,18.1567176989-7.8111263698-8.9291407104-6.2026484303-19.54901077-.9748642546-29.3517190004,8.2976203518-15.5590109655,19.8738984606-30.4498547665,28.2314245362-46.0944502073Z"/>
  <path class="cls-1" d="M88.8673094637,212.9877378446c1.1503793244.9403983042-.0099179098,1.3624456806-1.1097276258,1.4916731773-18.5092141403,2.1748302237-32.8248355182-.4171034762-48.4222114594-10.5928934365-11.2632638666-7.3481980435-20.40004956-19.4383537392-19.9163249987-33.4922156783,12.5261976563,2.2313640728,24.449692637,10.0566018549,30.7415130956,21.1671083681,2.1945535003,3.8752855582,6.3364624876,17.5910249914,8.8472444125,18.7918816994.9786140563.4680515032,1.9252488152.4695931973,2.9694578168.3903156682-1.3785421517-17.4082329628,3.872019504-31.3337672122,11.5619921956-46.340761394,2.0159689059-3.9341665901,4.5411799153-8.9794333265,6.7203656869-12.7016592015.4797629819-.8194740478.7636547748-2.0498373029,1.8758544202-2.2249262823-.8923170922,12.4255975748-8.6967062093,23.5265192837-11.7281374835,35.7015449692-1.4965891077,6.0106956676-3.3525847376,16.1886039136-1.5448839496,22.0401764999,1.502746489,4.8644279062,15.6201443806,4.6875346421,20.0048578895,5.7697556105Z"/>
  <path class="cls-1" d="M160.5552115996,24.703679545c.3321139731,6.5168484458-4.8004484955,14.0391159145-10.803469806,16.4645691738-2.7168871832,1.0977277162-6.5714960135.9390415096-8.5962306748,1.8576239804-1.2819866667.5816122489-2.5687893631,4.6587750043-3.3992912837,2.6022861758-.3368394715-.8340818883.5432772571-6.1269576804.8978892719-7.3443887081,2.5421795465-8.7276463558,12.9716109121-14.5431015451,21.9011024927-13.5800906219Z"/>
  <path class="cls-1" d="M136.6484215339,48.608330043l-3.4257200248-9.636122361c-.4886453772-2.7306670795-9.6498029753-9.8829415907-7.7639804367-12.0235819899,8.7921742488,3.3756532297,12.1955861518,12.7459246808,11.1897004615,21.6597043509Z"/>
</svg>